# xmcd
#
# Track frame offsets:
#	182
#	19592
#	47580
#	62780
#	79567
#	104472
#	120460
#	140980
#	156710
#	175767
#	198930
#	216522
#	235045
#	245535
#	274707
#	291737
#
# Disc length: 4284
#
# Revision: 3
# Processed by: cddbd v1.5.1PL0 Copyright (c) Steve Scherf et al.
# Submitted via: audiograbber 1.80
# Normalized: r2:DSETVAR1
#
DISCID=f210ba10
DTITLE=Various Artist - Blues Masters, Vol 17: More Postmodern Blues
DYEAR=1900
DGENRE=
TTITLE0=The Allman Brothers Band - Statesboro Blues
TTITLE1=Little Milton - Walking The Back Streets and Crying
TTITLE2=James Cotton - Boogie Thing
TTITLE3=Albert King - Firing Line (I Don't Play With Your Woman, You Don't Play With Mine)
TTITLE4=B.B. King - Never Make A Move Too Soon
TTITLE5=Johnny Copeland - Claim Jumper
TTITLE6=Albert Collins and The Ice Breakers - Ego Trip
TTITLE7=The Robert Cray Band - Phone Booth
TTITLE8=W.C. Clark - Cold Shot
TTITLE9=Joe Louis Walker - Prove Your Love
TTITLE10=Snooks Eaglin - Red Beans
TTITLE11=Koko Tayler - Spellbound
TTITLE12=Keb' Mo' - Am I Wrong
TTITLE13=Luther Allison - Put Your Money Where Your Mouth Is
TTITLE14=Larry Garner - Had To Quit Drinking
TTITLE15=Johnny Adams - One Foot In The Blues
EXTD=
EXTT0=
EXTT1=
EXTT2=
EXTT3=
EXTT4=
EXTT5=
EXTT6=
EXTT7=
EXTT8=
EXTT9=
EXTT10=
EXTT11=
EXTT12=
EXTT13=
EXTT14=
EXTT15=
PLAYORDER=
